<svg xmlns="http://www.w3.org/2000/svg" width="676.001" height="133.778" viewBox="0 0 676.001 133.778">
  <g id="Artboard_1_1" data-name="Artboard 1_1" transform="translate(-48.89 -62.32)">
    <path id="Path_127" data-name="Path 127" d="M1333.526,62.32c-38.554,0-67.786,29.054-67.786,66.889s29.232,66.889,67.786,66.889,67.786-29.05,67.786-66.889S1372.08,62.32,1333.526,62.32Zm24.484,92.093a36.494,36.494,0,0,1-23.952,8.918h0a38.2,38.2,0,0,1-25.55-9.771c-10.153-9.131-19.932-22.921-15.207-40.824.031-.115.062-.235.1-.355a.357.357,0,0,1,0-.067c2.665-9.771,10.486-16.845,19.688-16.845,8.3,0,16.033,5.747,19.359,14.048.684,1.705,1.919,1.705,2.607,0,3.335-8.27,11.1-14,19.395-14,9.2,0,17,7.07,19.688,16.846v.071c.036.12.067.235.1.355C1379.106,131.159,1368.536,145.251,1358.011,154.413Z" transform="translate(-676.422)" fill="#c35353"/>
    <path id="Path_128" data-name="Path 128" d="M48.89,67.66H86.725c17.578,0,30.644,2.509,39.456,7.35,10.042,5.56,14.692,14.345,14.692,25.106,0,13.99-7.714,22.059-19.541,26.363v.355c16.5,4.845,24.755,15.589,24.755,31.577s-8.252,27.784-24.755,34.06c-8.967,3.406-20.083,5.019-33.891,5.019H48.89Zm43.573,53.8c11.658,0,19.905-4.3,19.905-14.882,0-4.126-1.252-8.607-6.093-11.3-4.663-2.691-12.555-3.229-20.088-3.229H77.4v29.41ZM87.982,173.1c10.215,0,17.214-.719,21.518-2.509,6.1-2.514,8.07-7.355,8.07-13.093,0-11.3-7.888-16.5-23.13-16.5H77.4v32.1Z" transform="translate(0 -2.968)" fill="#c35353"/>
    <path id="Path_129" data-name="Path 129" d="M347.28,67.66h40.708c15.42,0,29.947,2.15,40.348,8.607,9.5,5.916,15.6,15.6,15.6,30.484,0,16.677-9.144,30.307-26.363,35.867l36.582,54.876H421.324l-32.8-51.291H375.793v51.291H347.28Zm42.858,57.2c7.714,0,13.63-.888,17.934-3.047,4.841-2.509,7.355-6.813,7.355-13.093,0-6.1-2.154-10.042-7.355-12.733-4.481-2.327-11.476-3.406-21.34-3.406H375.793v32.279Z" transform="translate(-165.869 -2.968)" fill="#c35353"/>
    <path id="Path_130" data-name="Path 130" d="M688.3,67.66h27.615l52.722,129.834H738.154l-10.4-27.256H675.391l-10.579,27.256H635.58Zm-4.126,80.159h34.97l-5.378-14.527c-3.766-10.215-8.438-23.134-11.836-33h-.36c-3.406,9.864-8.07,22.779-12.2,33.718Z" transform="translate(-326.129 -2.968)" fill="#c35353"/>
    <path id="Path_131" data-name="Path 131" d="M941.64,67.627h30.667l20.8,57.025c4.3,11.658,8.607,23.672,12.551,35.325h.36c4.126-11.836,8.438-23.49,12.911-35.53L1040.248,67.6h29.232l-49.475,129.861h-28.69Z" transform="translate(-496.261 -2.935)" fill="#c35353"/>
  </g>
</svg>
