<svg id="Layer_1" data-name="Layer 1" xmlns="http://www.w3.org/2000/svg" xmlns:xlink="http://www.w3.org/1999/xlink" viewBox="0 0 987.38 569.13"><defs><style>.cls-1{fill:url(#linear-gradient);}.cls-2{fill:url(#linear-gradient-8);}.cls-3{fill:url(#linear-gradient-9);}.cls-4{fill:url(#linear-gradient-10);}.cls-5,.cls-6{fill:none;stroke-linecap:round;stroke-miterlimit:10;stroke-width:9.52px;}.cls-5{stroke:url(#linear-gradient-11);}.cls-6{stroke:url(#linear-gradient-12);}</style><linearGradient id="linear-gradient" x1="103.98" y1="483.95" x2="786.54" y2="483.95" gradientUnits="userSpaceOnUse"><stop offset="0.07" stop-color="#b91d73"/><stop offset="0.28" stop-color="#cd2e8d"/><stop offset="0.57" stop-color="#e542ac"/><stop offset="0.83" stop-color="#f44fbf"/><stop offset="1" stop-color="#f953c6"/></linearGradient><linearGradient id="linear-gradient-8" x1="271.63" y1="288.34" x2="714.36" y2="144.49" gradientUnits="userSpaceOnUse"><stop offset="0" stop-color="#b91d73"/><stop offset="0.22" stop-color="#cd2e8d"/><stop offset="0.54" stop-color="#e542ac"/><stop offset="0.81" stop-color="#f44fbf"/><stop offset="1" stop-color="#f953c6"/></linearGradient><linearGradient id="linear-gradient-9" x1="211.95" y1="320.41" x2="776.97" y2="320.41" gradientUnits="userSpaceOnUse"><stop offset="0.31" stop-color="#b91d73"/><stop offset="0.46" stop-color="#cd2e8d"/><stop offset="0.68" stop-color="#e542ac"/><stop offset="0.87" stop-color="#f44fbf"/><stop offset="1" stop-color="#f953c6"/></linearGradient><linearGradient id="linear-gradient-10" x1="469.96" y1="22.34" x2="514.86" y2="22.34" xlink:href="#linear-gradient-8"/><linearGradient id="linear-gradient-11" x1="764.24" y1="141.91" x2="985.76" y2="141.91" xlink:href="#linear-gradient-8"/><linearGradient id="linear-gradient-12" x1="169.94" y1="257.3" x2="39.74" y2="31.78" xlink:href="#linear-gradient-8"/></defs><path class="cls-1" d="M122.15,568.59V469.25H104V449.42h18.17v-10.9q0-19.83,11-30.62T164,397.11a61.89,61.89,0,0,1,15,2L178.32,420a52.46,52.46,0,0,0-10.24-.89q-19.17,0-19.16,19.72v10.57h24.23v19.83H148.92v99.34Z"/><path class="cls-1" d="M187.68,507.91a70.35,70.35,0,0,1,6.94-31.56,50.74,50.74,0,0,1,19.5-21.59q12.56-7.53,28.85-7.54,24.12,0,39.16,15.53t16.24,41.19l.11,6.28q0,17.63-6.77,31.5a50.17,50.17,0,0,1-19.38,21.48q-12.61,7.59-29.14,7.59-25.22,0-40.36-16.79t-15.15-44.77Zm26.77,2.31q0,18.39,7.6,28.8t21.14,10.41q13.56,0,21.1-10.58t7.54-30.94q0-18.07-7.76-28.64T243,468.7a24.58,24.58,0,0,0-20.81,10.4Q214.45,489.51,214.45,510.22Z"/><path class="cls-1" d="M316.11,507.91A70.34,70.34,0,0,1,323,476.35a50.74,50.74,0,0,1,19.5-21.59q12.56-7.53,28.85-7.54,24.12,0,39.16,15.53t16.24,41.19l.11,6.28q0,17.63-6.77,31.5a50.11,50.11,0,0,1-19.38,21.48q-12.62,7.59-29.13,7.59-25.23,0-40.37-16.79t-15.14-44.77Zm26.76,2.31q0,18.39,7.6,28.8t21.15,10.41q13.54,0,21.09-10.58t7.54-30.94q0-18.07-7.76-28.64t-21.1-10.57a24.58,24.58,0,0,0-20.81,10.4Q342.87,489.51,342.87,510.22Z"/><path class="cls-1" d="M444.53,508.13q0-27.54,12.77-44.22t34.26-16.69q18.93,0,30.61,13.22v-61h26.77V568.59H524.71l-1.32-12.33q-12,14.54-32.05,14.53-20.94,0-33.87-16.85T444.53,508.13Zm26.76,2.31q0,18.16,7,28.36T498.16,549q16.41,0,24-14.65V483.45q-7.38-14.31-23.79-14.31-13,0-20,10.29T471.29,510.44Z"/><path class="cls-1" d="M571.85,507.91a70.22,70.22,0,0,1,6.94-31.56,50.65,50.65,0,0,1,19.49-21.59q12.56-7.53,28.86-7.54,24.12,0,39.15,15.53t16.25,41.19l.11,6.28q0,17.63-6.78,31.5a50.11,50.11,0,0,1-19.38,21.48q-12.62,7.59-29.13,7.59-25.23,0-40.37-16.79t-15.14-44.77Zm26.76,2.31q0,18.39,7.6,28.8t21.15,10.41q13.54,0,21.09-10.58T656,507.91q0-18.07-7.76-28.64T627.14,468.7a24.59,24.59,0,0,0-20.82,10.4Q598.61,489.51,598.61,510.22Z"/><path class="cls-1" d="M767.67,473.87a67,67,0,0,0-10.9-.88q-18.39,0-24.78,14.1v81.5H705.22V449.42h25.56l.66,13.33q9.69-15.53,26.87-15.53a25,25,0,0,1,9.47,1.54Z"/><path class="cls-1" d="M852.48,568.59q-1.77-3.4-3.08-11.12a41.68,41.68,0,0,1-31.28,13.32q-18,0-29.3-10.24a32.78,32.78,0,0,1-11.35-25.33q0-19.05,14.16-29.24t40.47-10.19h16.41V488q0-9.25-5.17-14.81t-15.75-5.57q-9.15,0-15,4.58a14.14,14.14,0,0,0-5.84,11.62H780a29.65,29.65,0,0,1,6.5-18.34,43.27,43.27,0,0,1,17.67-13.38,61.94,61.94,0,0,1,25-4.85q20.93,0,33.37,10.52t12.78,29.57v53.75q0,16.08,4.51,25.66v1.87Zm-29.41-19.27A30.48,30.48,0,0,0,838,545.46a25.76,25.76,0,0,0,10.51-10.35V512.64H834.09q-14.88,0-22.36,5.18t-7.49,14.65q0,7.71,5.12,12.28T823.07,549.32Z"/><path class="cls-2" d="M731.45,303.15c0-131.76-106.81-238.57-238.56-238.57S254.32,171.39,254.32,303.15"/><rect class="cls-3" x="211.95" y="301.58" width="565.02" height="37.67" rx="5.32"/><circle class="cls-4" cx="492.41" cy="22.34" r="22.45"/><path class="cls-5" d="M796.67,240.37c-7.65-6.83-29.66-28.19-27.52-55,1.62-20.39,16.38-34.05,31.45-47.18,57.76-50.31,83.15-72.56,114-86.48,13.63-6.15,43-16.94,60.11,4.58,12,15,7.15,53.62-16.86,66.18-19.06,10-43.18,12.47-40.35,12.47,25,0,62.52-2.09,50.06,32.18-14.3,39.32-53.63,10.72-68.68,14.32-7.12,1.7,29.35,7.13,32.92,25,5,24.79-28.6,32.18-78.65,14.3"/><path class="cls-6" d="M192,239.1c7.65-6.83,29.66-28.19,27.52-55-1.62-20.38-16.38-34-31.45-47.17C130.26,86.58,104.87,64.32,74,50.4,60.39,44.25,31,33.46,13.91,55,1.94,70,6.76,108.61,30.77,121.16c19.05,10,43.18,12.47,40.34,12.47-25,0-62.51-2.08-50,32.18,14.3,39.33,53.63,10.73,68.68,14.32,7.12,1.7-29.35,7.13-32.93,25-5,24.79,28.6,32.17,78.66,14.3"/></svg>