<svg xmlns="http://www.w3.org/2000/svg" viewBox="0 0 960 803"><defs><style>.cls-1{font-size:120px;font-family:UrbaneRounded-DemiBold, Urbane Rounded;font-weight:300;}.cls-1,.cls-2{fill:#ff0071;}.cls-3{fill:blue;}.cls-10,.cls-11,.cls-12,.cls-13,.cls-14,.cls-15,.cls-16,.cls-17,.cls-18,.cls-19,.cls-20,.cls-21,.cls-22,.cls-23,.cls-24,.cls-25,.cls-26,.cls-4,.cls-5,.cls-6,.cls-7,.cls-8,.cls-9{fill:none;stroke:#fff;stroke-linecap:round;stroke-miterlimit:10;}.cls-4{stroke-width:4px;}.cls-5{stroke-width:25px;}.cls-6{stroke-width:26.64px;}.cls-7{stroke-width:18.7px;}.cls-8{stroke-width:14.67px;}.cls-9{stroke-width:17.86px;}.cls-10{stroke-width:15.13px;}.cls-11{stroke-width:31.47px;}.cls-12{stroke-width:16.13px;}.cls-13{stroke-width:17.43px;}.cls-14{stroke-width:19.52px;}.cls-15{stroke-width:34.71px;}.cls-16{stroke-width:20.47px;}.cls-17{stroke-width:22.61px;}.cls-18{stroke-width:31.56px;}.cls-19{stroke-width:22.61px;}.cls-20{stroke-width:18.8px;}.cls-21{stroke-width:14.31px;}.cls-22{stroke-width:15.2px;}.cls-23{stroke-width:23.56px;}.cls-24{stroke-width:15.3px;}.cls-25{stroke-width:18.34px;}.cls-26{stroke-width:15.06px;}</style></defs><g id="Layer_2" data-name="Layer 2"><text class="cls-1" transform="translate(104.34 696.35)">HAMASUSHI</text><path class="cls-2" d="M783.27,287s15,23,32.81,26c.56.09,1.13,0,1.69.15,1.86.32,8.18.43,8.48-13.1,0-.63,0-1.27.09-1.9C827.55,282,840.09,51.05,561.53,71.83c-1.33.09-2.66.14-4,.11-9.13-.22-53.56.12-109.11,24.54q-1.17.51-2.37,1c-10.18,3.73-72.8,24.56-110.8,41.56-29.5,13.19-171,106-202,309,0,0-2,28,47,42,0,0,26,7,45,34,7.67,10.91,44,48,55,4,8.29-33.16,28.09-65.32,34.62-75.35a41.31,41.31,0,0,1,4.53-5.76C335.94,429.32,435.58,330.28,508.27,295c74.59-36.2,120-76,275-8"/><path class="cls-3" d="M293.27,492s344,32,490-205c0,0-71-115-260-5S307.27,461,293.27,492Z"/><path class="cls-4" d="M157.24,477s50.15-64.88,94-97c56-41,75-43,82.39-42.75,2.68.1,4.61.75,4.82,3l-14.11,95.05"/><path class="cls-4" d="M143.34,415S351.86,219.87,430.7,232a8.37,8.37,0,0,1,7,7.49c1.06,10.81-2.24,39.38-29.43,114.49"/><path class="cls-4" d="M173.27,322S425.34,159.06,524.13,184.13a10.92,10.92,0,0,1,8.28,10.48c.16,13.28-7.89,45-58.14,115.39"/><path class="cls-4" d="M270.27,189S562.4,55.15,709.21,146.32a16.76,16.76,0,0,1,5.92,22.28c-7.41,13.48-24,35.87-60.86,64.4"/><path class="cls-4" d="M220.27,244S450.15,127.6,618.55,141.28a8.06,8.06,0,0,1,7.31,9.12c-2.13,16.26-13.34,55.34-68.59,110.6"/><path class="cls-4" d="M689.27,233s31-33,90-22c0,0,19,5,37,1"/><path class="cls-4" d="M751.25,252.8s47.38,15.8,71.7,0"/><line class="cls-5" x1="350.77" y1="456.5" x2="357.77" y2="463.5"/><line class="cls-6" x1="389.27" y1="409" x2="396.42" y2="401.22"/><line class="cls-7" x1="433.35" y1="466.87" x2="428.72" y2="472.79"/><line class="cls-8" x1="393.06" y1="450.87" x2="396.91" y2="455.25"/><line class="cls-9" x1="463.27" y1="446" x2="468.27" y2="451"/><line class="cls-10" x1="429.98" y1="428.01" x2="431.97" y2="419"/><line class="cls-11" x1="737.36" y1="288.61" x2="727.37" y2="280.83"/><line class="cls-12" x1="638.59" y1="259.99" x2="642.49" y2="254.77"/><line class="cls-13" x1="671.23" y1="278.03" x2="674.87" y2="284.58"/><line class="cls-14" x1="709.27" y1="335.27" x2="717.27" y2="339"/><line class="cls-15" x1="663.76" y1="324.05" x2="654.27" y2="334"/><line class="cls-16" x1="613.67" y1="295.82" x2="618.67" y2="302.39"/><line class="cls-17" x1="575.22" y1="275" x2="569.49" y2="282"/><line class="cls-18" x1="458.48" y1="377.26" x2="448.44" y2="369.48"/><line class="cls-19" x1="515.36" y1="449.67" x2="520.36" y2="441.66"/><line class="cls-20" x1="488.6" y1="408.59" x2="492.68" y2="415.39"/><line class="cls-21" x1="488.18" y1="330.68" x2="483.46" y2="334.09"/><line class="cls-22" x1="556.46" y1="437.19" x2="561.78" y2="440.59"/><line class="cls-23" x1="527.96" y1="383.11" x2="532.27" y2="373"/><line class="cls-24" x1="493.61" y1="359.33" x2="497.6" y2="363.93"/><line class="cls-25" x1="552.3" y1="409.87" x2="561.27" y2="406.93"/><line class="cls-16" x1="527.71" y1="327.18" x2="532.71" y2="333.75"/><line class="cls-17" x1="600.07" y1="405.97" x2="594.34" y2="412.97"/><line class="cls-18" x1="647.23" y1="387.35" x2="637.19" y2="379.58"/><line class="cls-26" x1="683.25" y1="364.08" x2="686.75" y2="359"/><line class="cls-21" x1="575.93" y1="319.37" x2="571.21" y2="322.78"/><line class="cls-8" x1="605.64" y1="346.29" x2="609.48" y2="350.68"/><line class="cls-13" x1="573.74" y1="366.21" x2="577.38" y2="372.76"/><line class="cls-26" x1="695.08" y1="257.33" x2="698.58" y2="252.25"/></g></svg>