<svg xmlns="http://www.w3.org/2000/svg" viewBox="0 0 436 1276.89"><defs><style>.cls-1{font-size:100px;font-family:VDL-MegaMaru-Regular-83pv-RKSJ-H, VDL-MegaMaru;letter-spacing:-0.03em;}.cls-1,.cls-6{fill:#ff0071;}.cls-2{letter-spacing:-0.09em;}.cls-3{letter-spacing:-0.02em;}.cls-4{letter-spacing:-0.2em;}.cls-5{fill:blue;}.cls-7{fill:none;stroke:#ff0071;stroke-linecap:round;stroke-miterlimit:10;stroke-width:3.15px;}</style></defs><g id="Layer_1" data-name="Layer 1"><text class="cls-1" transform="translate(167.35 867.88)">は<tspan class="cls-2"><tspan x="1.85" y="120">ま</tspan></tspan><tspan class="cls-3"><tspan x="-1.75" y="240">ず</tspan></tspan><tspan class="cls-4"><tspan x="-0.05" y="360">し</tspan></tspan></text></g><g id="Layer_2" data-name="Layer 2"><path class="cls-5" d="M400.44,552.06C325.31,429.71,300.36,324.84,278.8,321.76c-5.51-.78-16.53,14.59-16.89,16a.05.05,0,0,1-.1,0c-3.11-7.33-4.94-38.37-4.14-66a225.7,225.7,0,0,1,18.16-82.28c21.74-50.74,62.9-126.31,78.95-151.53,8.26-13,1.18-13-2.56-13.11a27,27,0,0,0-15.13,4.58c-53.87,34.16-85.06,68.77-111,71.92-29,3.51-67.16-33-81.9-35.91a31.62,31.62,0,0,0-14.51.42c-12.37,3.4-28,16.17-5.55,62.65,32.5,67.32,24.69,197,24.41,201.44,0,0,0,0,0,0-10.21-37.59-16.28-19.74-18.2-11.72-.79,3.29-1.76,6.54-2.85,9.74C121.25,345.86,104,391.05,88,402.86c-14.28,10.55,18.1,45.61,29.4,57.43a7.53,7.53,0,0,1,1.48,8.2C71.62,578.1,81.57,719,81.57,719c136.21,57.47,252-5.51,252-5.51s4.45-8.9-1-51.89a9.23,9.23,0,0,1,2.08-7.1C347.39,639.15,414.22,574.5,400.44,552.06Z"/><path class="cls-6" d="M132.75,686.7s20.47-6.3,49.6,3.15c0,0,19.15-35.44,15.75-44.88-3.55-9.84-15.12-20.59-60.24,2-4.72,2.36-4.72,2.36-8.23,2.31-4.86-.06-13.42-1.13-16.57,3.59C110.13,657.24,117,677.25,132.75,686.7Z"/><path class="cls-7" d="M256,273.73s-7.88-1.57-10.24,7.88"/><path class="cls-7" d="M225.82,306.86s5.51-12.14,19.21-3.33"/><path class="cls-7" d="M246.52,364.28s6.69-10.24,15.94,0"/><path class="cls-7" d="M205.21,402.86s12.18-11.81,24-3.94"/><path class="cls-7" d="M209.51,472.15s11-8.67,14.17,6.29"/><path class="cls-7" d="M246.52,528.83s14.67-15.74,20.72,0"/><path class="cls-7" d="M281.11,678s9.5-16.93,25.25-9.06"/><path class="cls-7" d="M309.59,700.08s11.73-17.71,24.32-5.9"/><path class="cls-7" d="M317.37,653.84s.8-8.48,8.67-9.27"/><path class="cls-7" d="M246.52,634.34s9.3-15.75,18.82,0"/><path class="cls-7" d="M271.71,607.57s8-18.9,18.54,0"/><path class="cls-7" d="M290.61,583.16s5.09-15,16.72,0"/><path class="cls-7" d="M292.18,543.79s7.88-17.32,14.18-3.15"/><path class="cls-7" d="M272.5,491s6.75-13.38,16.37,0"/><path class="cls-7" d="M280.37,463.48s1.58-11,9.45-11"/><path class="cls-7" d="M247,417.05s12.36-8.33,21.68-2.21"/><path class="cls-7" d="M245.73,468.21s8.12-20.47,17.45,0"/><path class="cls-7" d="M279.47,554.2s6.76-11.63,15.64,0"/><path class="cls-7" d="M215.75,586.49s12.19-16.36,19.91,0"/><path class="cls-7" d="M291.4,613.87s9.33-15,15.29,0"/><path class="cls-7" d="M190.62,506.79s12.92-4.79,16.3,7.45"/><path class="cls-7" d="M195.9,537.36s10.08-8.8,21.29,0"/><path class="cls-7" d="M222.9,505.21s12.46-16.53,21.19,0"/><path class="cls-7" d="M190.35,406s9.71-10.24,19.16,3.15"/><path class="cls-7" d="M226.05,406s12.59-19.68,25.19-11"/><path class="cls-7" d="M212.66,339.87s13.81-8.66,19.9,0"/><path class="cls-7" d="M300.85,638.39s11.8-19,18.89,8.55"/><path class="cls-7" d="M298.74,517.14S300,503.9,305.14,505"/><path class="cls-7" d="M220.54,380s8.7-9.45,17.34,0"/><path class="cls-7" d="M205.58,295.78s16.36-13.75,21.56,6.9"/><path class="cls-7" d="M222.9,443.8s11.57-17.32,21.14,0"/><path class="cls-7" d="M273.85,431.49s1.42-9.57,8.7-13.2"/><path class="cls-7" d="M251.24,563.48s11.28-18.9,22.57,0"/><path class="cls-7" d="M211.09,545.37s9.49-15.77,20.1-3.16"/><path class="cls-7" d="M247.82,685.12s14.7-11.41,20.08,11.81"/><path class="cls-7" d="M246.64,331.3s-.12-13.47,10.9-10.32"/><path class="cls-7" d="M264.81,513.38s8-13.45,18.86,6.12"/><path class="cls-7" d="M234.2,591s9.62-19.68,23.57,0"/><path class="cls-7" d="M235.91,488.33s3.84-25.54,16.67,0"/><path class="cls-7" d="M219,250.9s11.78-13.38,24,0"/><path class="cls-7" d="M185.1,273s8.67-16.54,21.26-5.51"/><path class="cls-7" d="M209.39,276.1s8.36-11.81,19.2,0"/></g></svg>