<svg id="adobe-illustrator" xmlns="http://www.w3.org/2000/svg" xmlns:xlink="http://www.w3.org/1999/xlink" width="116.16" height="116.16" viewBox="0 0 116.16 116.16">
  <defs>
    <linearGradient id="linear-gradient" x1="0.291" y1="0.044" x2="1.297" y2="0.957" gradientUnits="objectBoundingBox">
      <stop offset="0" stop-color="#fe555e"/>
      <stop offset="1" stop-color="#fdbc1d"/>
    </linearGradient>
  </defs>
  <path id="Path_1" data-name="Path 1" d="M112.927,170.729h16.332l4.414,14.637h13.864l-17.7-57.077H112.927L95.455,185.366h13.382Zm7.855-32.8h.166c.839,3.416,6.458,23.123,6.458,23.123H114.772S119.933,141.347,120.781,137.931Z" transform="translate(-72.593 -97.563)" fill="url(#linear-gradient)"/>
  <rect id="Rectangle_7" data-name="Rectangle 7" width="12.891" height="41.393" transform="translate(79.983 46.41)" fill="url(#linear-gradient)"/>
  <path id="Path_2" data-name="Path 2" d="M339.281,131.357c4.256,0,6.948-2.893,6.948-6.433a6.451,6.451,0,0,0-6.849-6.525c-4.156,0-6.882,2.793-6.791,6.525C332.5,128.464,335.225,131.357,339.281,131.357Z" transform="translate(-252.931 -90.042)" fill="url(#linear-gradient)"/>
  <path id="Path_3" data-name="Path 3" d="M0,0V116.16H116.16V0ZM108.975,108.975H7.185V7.185h101.79Z" fill="url(#linear-gradient)"/>
</svg>
