<svg xmlns="http://www.w3.org/2000/svg" xmlns:xlink="http://www.w3.org/1999/xlink" width="47" height="35.25" viewBox="0 0 47 35.25">
  <defs>
    <linearGradient id="linear-gradient" x1="0.163" y1="0.15" x2="0.872" y2="0.795" gradientUnits="objectBoundingBox">
      <stop offset="0" stop-color="#fe555e"/>
      <stop offset="1" stop-color="#fdbc1d"/>
    </linearGradient>
  </defs>
  <path id="envelope-regular" d="M42.594,64H4.406A4.406,4.406,0,0,0,0,68.406V94.844A4.406,4.406,0,0,0,4.406,99.25H42.594A4.406,4.406,0,0,0,47,94.844V68.406A4.406,4.406,0,0,0,42.594,64Zm0,4.406v3.746c-2.058,1.676-5.34,4.282-12.355,9.775-1.546,1.216-4.608,4.137-6.739,4.1-2.13.034-5.194-2.888-6.739-4.1-7.014-5.492-10.3-8.1-12.355-9.775V68.406ZM4.406,94.844V77.806c2.1,1.675,5.086,4.026,9.633,7.587,2.006,1.579,5.52,5.066,9.461,5.045,3.921.021,7.39-3.415,9.46-5.044,4.547-3.56,7.53-5.912,9.634-7.587V94.844Z" transform="translate(0 -64)" fill="url(#linear-gradient)"/>
</svg>
