<svg id="files-2" xmlns="http://www.w3.org/2000/svg" xmlns:xlink="http://www.w3.org/1999/xlink" width="116.16" height="116.16" viewBox="0 0 116.16 116.16">
  <defs>
    <linearGradient id="linear-gradient" x1="0.5" y1="0.083" x2="0.866" y2="0.842" gradientUnits="objectBoundingBox">
      <stop offset="0" stop-color="#fe555e"/>
      <stop offset="1" stop-color="#fdbc1d"/>
    </linearGradient>
  </defs>
  <g id="Group_8" data-name="Group 8" transform="translate(0 0)">
    <g id="Group_7" data-name="Group 7" transform="translate(0 0)">
      <path id="Path_7" data-name="Path 7" d="M110.52,263.26a7.26,7.26,0,0,1,7.26,7.26h7.26a14.52,14.52,0,1,0-29.04,0v7.26a14.52,14.52,0,1,0,29.04,0h-7.26a7.26,7.26,0,1,1-14.52,0v-7.26A7.26,7.26,0,0,1,110.52,263.26Z" transform="translate(-74.22 -197.92)" fill="url(#linear-gradient)"/>
      <path id="Path_8" data-name="Path 8" d="M7.26,105.27V10.89a3.63,3.63,0,0,1,3.63-3.63H65.34V21.78a7.26,7.26,0,0,0,7.26,7.26H87.12V39.93h7.26V25.41a3.629,3.629,0,0,0-1.053-2.577L71.547,1.053A3.63,3.63,0,0,0,68.97,0H10.89A10.89,10.89,0,0,0,0,10.89v94.38a10.89,10.89,0,0,0,10.89,10.89H36.3V108.9H10.89A3.63,3.63,0,0,1,7.26,105.27Z" transform="translate(0 0)" fill="url(#linear-gradient)"/>
      <path id="Path_9" data-name="Path 9" d="M402.15,270.52h-7.26a3.63,3.63,0,0,1,0-7.26h7.26a3.63,3.63,0,0,1,3.63,3.63h7.26A10.89,10.89,0,0,0,402.15,256h-7.26a10.89,10.89,0,0,0,0,21.78h7.26a3.63,3.63,0,0,1,0,7.26h-7.26a3.63,3.63,0,0,1-3.63-3.63H384a10.89,10.89,0,0,0,10.89,10.89h7.26a10.89,10.89,0,0,0,0-21.78Z" transform="translate(-296.88 -197.92)" fill="url(#linear-gradient)"/>
      <path id="Path_10" data-name="Path 10" d="M250.89,263.26h7.26a3.63,3.63,0,0,1,3.63,3.63h7.26A10.89,10.89,0,0,0,258.15,256h-7.26a10.89,10.89,0,1,0,0,21.78h7.26a3.63,3.63,0,1,1,0,7.26h-7.26a3.63,3.63,0,0,1-3.63-3.63H240a10.89,10.89,0,0,0,10.89,10.89h7.26a10.89,10.89,0,1,0,0-21.78h-7.26a3.63,3.63,0,1,1,0-7.26Z" transform="translate(-185.55 -197.92)" fill="url(#linear-gradient)"/>
    </g>
  </g>
</svg>
