<svg width="106" height="117" viewBox="0 0 106 117" fill="none" xmlns="http://www.w3.org/2000/svg">
<g clip-path="url(#clip0)">
<path d="M7.26 105.27V10.8901C7.26 9.92732 7.64245 9.00402 8.3232 8.32326C9.00396 7.6425 9.92726 7.26006 10.89 7.26006H65.34V21.7801C65.34 22.7335 65.5278 23.6775 65.8926 24.5583C66.2575 25.4392 66.7923 26.2395 67.4664 26.9137C68.1406 27.5878 68.9409 28.1226 69.8217 28.4874C70.7025 28.8523 71.6466 29.0401 72.6 29.0401H87.12V39.9301H94.38V25.4101C94.3827 24.9323 94.2911 24.4588 94.1104 24.0166C93.9297 23.5743 93.6635 23.1722 93.327 22.8331L71.547 1.05306C71.2079 0.716606 70.8057 0.4504 70.3635 0.269704C69.9212 0.0890077 69.4477 -0.00262578 68.97 5.7259e-05H10.89C8.00179 5.7259e-05 5.23188 1.14739 3.18961 3.18966C1.14734 5.23194 0 8.00185 0 10.8901L0 105.27C0 108.158 1.14734 110.928 3.18961 112.97C5.23188 115.013 8.00179 116.16 10.89 116.16H36.3V108.9H10.89C10.4133 108.9 9.94127 108.806 9.50086 108.624C9.06045 108.441 8.66028 108.174 8.3232 107.837C7.64245 107.156 7.26 106.233 7.26 105.27V105.27Z" fill="url(#paint0_linear)"/>
</g>
<path d="M64.7149 58.0266H72.1271V82.9313C72.1271 85.2208 71.6164 87.2467 70.5952 89.0092C69.5905 90.7551 68.1657 92.1058 66.3209 93.0611C64.4761 94.0165 62.3925 94.4941 60.07 94.4941C56.2651 94.4941 53.3003 93.5306 51.1755 91.6034C49.0507 89.6598 47.9883 86.9173 47.9883 83.376H55.4498C55.4498 85.1384 55.8204 86.4396 56.5616 87.2797C57.3028 88.1197 58.4723 88.5397 60.07 88.5397C61.4866 88.5397 62.6148 88.0538 63.4549 87.082C64.2949 86.1102 64.7149 84.7266 64.7149 82.9313V58.0266ZM96.6246 84.5619C96.6246 83.1618 96.1304 82.0912 95.1421 81.35C94.1539 80.5923 92.375 79.8017 89.8054 78.9781C87.2359 78.1381 85.2017 77.3145 83.7028 76.5074C79.6179 74.3003 77.5754 71.3272 77.5754 67.5882C77.5754 65.6446 78.119 63.9151 79.2061 62.3997C80.3097 60.8679 81.8827 59.6737 83.9252 58.8172C85.9841 57.9607 88.2901 57.5324 90.8431 57.5324C93.4127 57.5324 95.7022 58.0019 97.7117 58.9407C99.7212 59.8631 101.278 61.1726 102.381 62.8691C103.501 64.5657 104.061 66.4928 104.061 68.6506H96.6493C96.6493 67.0035 96.1304 65.7269 95.0927 64.821C94.055 63.8986 92.5973 63.4374 90.7196 63.4374C88.9077 63.4374 87.4994 63.8245 86.4947 64.5986C85.4899 65.3563 84.9876 66.3611 84.9876 67.6129C84.9876 68.7824 85.5723 69.7624 86.7418 70.553C87.9277 71.3437 89.6654 72.0849 91.9549 72.7767C96.1716 74.045 99.2435 75.618 101.171 77.4957C103.098 79.3734 104.061 81.7124 104.061 84.5125C104.061 87.6256 102.884 90.0716 100.528 91.8505C98.1729 93.6129 95.0021 94.4941 91.0161 94.4941C88.2489 94.4941 85.7288 93.9918 83.4557 92.987C81.1827 91.9658 79.4449 90.574 78.2425 88.8115C77.0566 87.0491 76.4636 85.0066 76.4636 82.6842H83.9004C83.9004 86.6538 86.2723 88.6386 91.0161 88.6386C92.7785 88.6386 94.1539 88.2844 95.1421 87.5762C96.1304 86.8514 96.6246 85.8467 96.6246 84.5619Z" fill="url(#paint1_linear)"/>
<defs>
<linearGradient id="paint0_linear" x1="47.19" y1="9.64128" x2="94.8836" y2="90.002" gradientUnits="userSpaceOnUse">
<stop stop-color="#FE555E"/>
<stop offset="1" stop-color="#FDBC1D"/>
</linearGradient>
<linearGradient id="paint1_linear" x1="47" y1="77.0175" x2="106" y2="77.0175" gradientUnits="userSpaceOnUse">
<stop stop-color="#FE555E"/>
<stop offset="1" stop-color="#FDBC1D"/>
</linearGradient>
<clipPath id="clip0">
<rect width="94.38" height="116.16" fill="white"/>
</clipPath>
</defs>
</svg>
