<svg id="Layer_2" data-name="Layer 2" xmlns="http://www.w3.org/2000/svg" xmlns:xlink="http://www.w3.org/1999/xlink" width="42.299" height="42.299" viewBox="0 0 42.299 42.299">
  <defs>
    <linearGradient id="linear-gradient" x1="0.289" y1="0.5" x2="0.661" y2="1.191" gradientUnits="objectBoundingBox">
      <stop offset="0" stop-color="#fe555e"/>
      <stop offset="1" stop-color="#fdbc1d"/>
    </linearGradient>
  </defs>
  <g id="图层_1" data-name="图层 1">
    <path id="Path_122" data-name="Path 122" d="M48.2,48.231v7.884a.351.351,0,0,1-.355.351H43.78a.351.351,0,0,1-.351-.351V48.782c0-1.928-.69-3.248-2.42-3.248a2.61,2.61,0,0,0-2.448,1.746,3.268,3.268,0,0,0-.158,1.183v7.652a.351.351,0,0,1-.355.351H33.98a.347.347,0,0,1-.351-.351c0-1.971.047-11.432,0-13.652a.351.351,0,0,1,.351-.359h4.06a.355.355,0,0,1,.355.355v1.679a.328.328,0,0,0-.032.047H38.4v-.047a4.731,4.731,0,0,1,4.3-2.365c3.154,0,5.519,2.05,5.519,6.461ZM26.565,56.466h4.068a.351.351,0,0,0,.351-.351V42.459a.351.351,0,0,0-.351-.355H26.565a.355.355,0,0,0-.355.355V56.115a.351.351,0,0,0,.355.351Z" transform="translate(-15.878 -25.303)" fill="url(#linear-gradient)"/>
    <circle id="Ellipse_8" data-name="Ellipse 8" cx="2.554" cy="2.554" r="2.554" transform="translate(10.025 9.863)" fill="url(#linear-gradient)"/>
    <path id="Path_123" data-name="Path 123" d="M34.884,2.716a4.707,4.707,0,0,1,4.7,4.7V34.884a4.707,4.707,0,0,1-4.7,4.7H7.415a4.707,4.707,0,0,1-4.7-4.7V7.415a4.707,4.707,0,0,1,4.7-4.7H34.884m0-2.716H7.415A7.415,7.415,0,0,0,0,7.415V34.884A7.415,7.415,0,0,0,7.415,42.3H34.884A7.415,7.415,0,0,0,42.3,34.884V7.415A7.415,7.415,0,0,0,34.884,0Z" fill="url(#linear-gradient)"/>
  </g>
</svg>
