<svg width="117" height="117" viewBox="0 0 117 117" fill="none" xmlns="http://www.w3.org/2000/svg">
<g clip-path="url(#clip0)">
<path d="M0 0V116.16H116.16V0H0ZM109.354 109.354H6.806V6.806H109.354V109.354Z" fill="url(#paint0_linear)"/>
<path d="M28.7969 64.9609V85H17.0781V28.125H39.2656C43.5365 28.125 47.2865 28.9062 50.5156 30.4688C53.7708 32.0312 56.2708 34.2578 58.0156 37.1484C59.7604 40.013 60.6328 43.2812 60.6328 46.9531C60.6328 52.526 58.7188 56.9271 54.8906 60.1562C51.0885 63.3594 45.8151 64.9609 39.0703 64.9609H28.7969ZM28.7969 55.4688H39.2656C42.3646 55.4688 44.7214 54.7396 46.3359 53.2812C47.9766 51.8229 48.7969 49.7396 48.7969 47.0312C48.7969 44.2448 47.9766 41.9922 46.3359 40.2734C44.6953 38.5547 42.4297 37.6693 39.5391 37.6172H28.7969V55.4688ZM88.8672 73.3203C88.8672 71.9401 88.1771 70.8594 86.7969 70.0781C85.4427 69.2708 83.2552 68.5547 80.2344 67.9297C70.1823 65.8203 65.1562 61.5495 65.1562 55.1172C65.1562 51.3672 66.7057 48.2422 69.8047 45.7422C72.9297 43.2161 77.0052 41.9531 82.0312 41.9531C87.3958 41.9531 91.6797 43.2161 94.8828 45.7422C98.112 48.2682 99.7266 51.5495 99.7266 55.5859H88.4375C88.4375 53.9714 87.9167 52.6432 86.875 51.6016C85.8333 50.5339 84.2057 50 81.9922 50C80.0911 50 78.6198 50.4297 77.5781 51.2891C76.5365 52.1484 76.0156 53.2422 76.0156 54.5703C76.0156 55.8203 76.6016 56.8359 77.7734 57.6172C78.9714 58.3724 80.9766 59.0365 83.7891 59.6094C86.6016 60.1562 88.9714 60.7812 90.8984 61.4844C96.862 63.6719 99.8438 67.4609 99.8438 72.8516C99.8438 76.7057 98.1901 79.8307 94.8828 82.2266C91.5755 84.5964 87.3047 85.7812 82.0703 85.7812C78.5286 85.7812 75.3776 85.1562 72.6172 83.9062C69.8828 82.6302 67.7344 80.8984 66.1719 78.7109C64.6094 76.4974 63.8281 74.1146 63.8281 71.5625H74.5312C74.6354 73.5677 75.3776 75.1042 76.7578 76.1719C78.138 77.2396 79.987 77.7734 82.3047 77.7734C84.4661 77.7734 86.0938 77.3698 87.1875 76.5625C88.3073 75.7292 88.8672 74.6484 88.8672 73.3203Z" fill="url(#paint1_linear)"/>
</g>
<defs>
<linearGradient id="paint0_linear" x1="28.343" y1="-28.1107" x2="149.73" y2="99.8976" gradientUnits="userSpaceOnUse">
<stop stop-color="#FE555E"/>
<stop offset="1" stop-color="#FDBC1D"/>
</linearGradient>
<linearGradient id="paint1_linear" x1="12" y1="58.8245" x2="103" y2="58.8245" gradientUnits="userSpaceOnUse">
<stop stop-color="#FE555E"/>
<stop offset="1" stop-color="#FDBC1D"/>
</linearGradient>
<clipPath id="clip0">
<rect width="116.16" height="116.16" fill="white"/>
</clipPath>
</defs>
</svg>
