<svg xmlns="http://www.w3.org/2000/svg" xmlns:xlink="http://www.w3.org/1999/xlink" width="143.888" height="143.888" viewBox="0 0 143.888 143.888">
  <defs>
    <linearGradient id="linear-gradient" x2="1" y2="1" gradientUnits="objectBoundingBox">
      <stop offset="0" stop-color="#fe555e"/>
      <stop offset="1" stop-color="#fdbc1d"/>
    </linearGradient>
    <clipPath id="clip-path">
      <rect id="Rectangle_1" data-name="Rectangle 1" width="143.888" height="143.888" fill="url(#linear-gradient)"/>
    </clipPath>
  </defs>
  <g id="photoshop" clip-path="url(#clip-path)">
    <path id="Path_1" data-name="Path 1" d="M0,0V143.888H143.888V0ZM135.457,135.457H8.431V8.431H135.457Z" fill="url(#linear-gradient)"/>
    <path id="Path_2" data-name="Path 2" d="M31.594,73.754V98.576H17.078V28.125H44.562a31.637,31.637,0,0,1,13.935,2.9,21.319,21.319,0,0,1,9.29,8.274,22.878,22.878,0,0,1,3.242,12.145q0,10.355-7.113,16.355-7.064,5.952-19.6,5.952Zm0-11.758H44.562q5.758,0,8.758-2.71,3.049-2.71,3.048-7.742a11.62,11.62,0,0,0-3.048-8.371,11.387,11.387,0,0,0-8.419-3.29H31.594ZM106,84.109a4.45,4.45,0,0,0-2.564-4.016,27.846,27.846,0,0,0-8.129-2.661Q76.633,73.512,76.633,61.56a14.34,14.34,0,0,1,5.758-11.613q5.806-4.694,15.145-4.694,9.968,0,15.919,4.694a14.771,14.771,0,0,1,6,12.193H105.471a6.684,6.684,0,0,0-1.935-4.935q-1.936-1.984-6.048-1.984a8.369,8.369,0,0,0-5.468,1.6,5.041,5.041,0,0,0-1.935,4.064,4.375,4.375,0,0,0,2.177,3.774,23.787,23.787,0,0,0,7.452,2.468,58.875,58.875,0,0,1,8.806,2.323Q119.6,73.512,119.6,83.528a13.718,13.718,0,0,1-6.145,11.613q-6.145,4.4-15.871,4.4a28.1,28.1,0,0,1-11.71-2.323,19.9,19.9,0,0,1-7.984-6.435,15.06,15.06,0,0,1-2.9-8.855H88.245A7.3,7.3,0,0,0,91,87.641a10.94,10.94,0,0,0,6.871,1.984q4.016,0,6.048-1.5A4.788,4.788,0,0,0,106,84.109Z" transform="translate(4.077 6.713)" fill="url(#linear-gradient)"/>
  </g>
</svg>
