<svg xmlns="http://www.w3.org/2000/svg" xmlns:xlink="http://www.w3.org/1999/xlink" width="116.16" height="116.16" viewBox="0 0 116.16 116.16">
  <defs>
    <linearGradient id="linear-gradient" x1="0.326" y1="0.345" x2="0.726" y2="0.709" gradientUnits="objectBoundingBox">
      <stop offset="0" stop-color="#fe555e"/>
      <stop offset="1" stop-color="#fdbc1d"/>
    </linearGradient>
    <linearGradient id="linear-gradient-2" x1="0.244" y1="-0.242" x2="1.289" y2="0.86" xlink:href="#linear-gradient"/>
  </defs>
  <g id="Group_16" data-name="Group 16" transform="translate(-582.619 -818.919)">
    <g id="surface54950916" transform="translate(611.075 847.182)">
      <g id="Group_11" data-name="Group 11" transform="translate(0 0)">
        <path id="Path_16" data-name="Path 16" d="M86.861,28.828c-.05,0-.1.006-.154.011a1.718,1.718,0,0,0-1.546,1.447c-.011.061-.913,5.765-2.723,8.764-2.09,3.46-8.918,7.311-18.738,10.557-1.958.655-3.878,1.21-5.738,1.755a66.238,66.238,0,0,0-7.471,2.476c-8.516,3.73-14.738,9.8-17.984,17.566a37.139,37.139,0,0,0-2.476,15.47,1.721,1.721,0,0,0,1.579,1.584,1.2,1.2,0,0,0,.138.006,1.728,1.728,0,0,0,1.678-1.326c.022-.083,2.063-8.412,6.448-11.613,2.91-2.124,7.707-3.251,12.791-4.445,5.562-1.309,11.872-2.789,17.318-5.914,5.628-3.224,13.5-8.555,16.878-17.511,4.01-10.618,1.722-17.39,1.623-17.67a1.716,1.716,0,0,0-1.617-1.155Zm.336,3.163c.429,2.393.831,7.7-1.942,15.057A25.038,25.038,0,0,1,81.4,53.788c-2.861,2.5-8.142,5.7-17.7,7.658a.435.435,0,0,0-.336.512.43.43,0,0,0,.424.341.5.5,0,0,0,.088-.006c1.141-.234,2.223-.487,3.676-.866a41.425,41.425,0,0,0,10.891-4.437,49.047,49.047,0,0,1-9.314,6.679c-10.265,5.886-23.766,5.716-30.268,10.464-.088.061-.171.138-.253.2.077-.1.149-.2.231-.3a.217.217,0,0,0-.336-.275,20.021,20.021,0,0,0-1.535,2.151c-.138.16-.275.325-.407.484a20.917,20.917,0,0,1,5.655-7.053c4.33-3.433,11.283-5.556,14.837-5.974q1.774-.206,3.416-.468a.429.429,0,1,0-.138-.847c-1.084.171-2.206.325-3.378.462-3.653.429-10.81,2.613-15.277,6.15-4.511,3.57-6.552,8.236-7.955,12.328a.426.426,0,0,0,.011.187c-.429.952-.8,1.859-1.084,2.657C33.278,79.782,34.56,73.8,37.08,70A26.471,26.471,0,0,1,47.51,60.538c4.209-2.162,9.748-3.614,15.618-5.155,2.426-.638,4.946-1.3,7.454-2.03a24.7,24.7,0,0,0,10.2-5.628.432.432,0,0,0-.594-.627,23.769,23.769,0,0,1-9.847,5.424c-2.5.732-5.012,1.392-7.432,2.024-3.015.792-5.93,1.562-8.643,2.415.886-.363,1.771-.715,2.767-1.106,2.69-1.04,5.743-2.223,8.786-3.735a.211.211,0,0,0,.094-.286.221.221,0,0,0-.286-.1c-3.02,1.507-6.062,2.679-8.747,3.719a54.047,54.047,0,0,0-7.08,3.1c-.935.38-1.843.781-2.685,1.21a27.66,27.66,0,0,0-10.75,9.759C33.614,73.67,32.316,80.189,31.716,84.3A34.451,34.451,0,0,1,34.1,72.063c2.894-6.915,8.428-12.857,17.087-16.653,3.158-1.381,8.021-2.5,13.06-4.17,2.113-.7,4.291-1.5,6.415-2.388-1.1.726-2.256,1.425-3.51,2.1a.216.216,0,0,0-.088.292.212.212,0,0,0,.193.116.17.17,0,0,0,.1-.028,42.6,42.6,0,0,0,5.281-3.339c5.039-2.278,9.457-5.028,11.283-8.054a24.2,24.2,0,0,0,2.36-6.536,20.556,20.556,0,0,1-1.463,6.987,19.919,19.919,0,0,1-3.46,5.5.427.427,0,0,0,.039.605.417.417,0,0,0,.286.11A.4.4,0,0,0,82,46.46a20.654,20.654,0,0,0,3.609-5.738A22.235,22.235,0,0,0,87.2,31.991ZM55.6,66.782c-5.347.132-9.457,1.089-12.571,2.921a21.873,21.873,0,0,0-3.35,2.767.206.206,0,0,0,0,.3.231.231,0,0,0,.154.066.215.215,0,0,0,.149-.066,21.733,21.733,0,0,1,3.279-2.707c3.037-1.788,7.08-2.718,12.35-2.85a.215.215,0,0,0,.209-.22A.223.223,0,0,0,55.6,66.782Zm0,0" transform="translate(-29.974 -28.828)" fill="url(#linear-gradient)"/>
      </g>
    </g>
    <g id="experience" transform="translate(542.619 908.919)">
      <g id="Group_4" data-name="Group 4" transform="translate(40 -90)">
        <g id="Group_3" data-name="Group 3">
          <path id="Path_5" data-name="Path 5" d="M0,0V116.16H116.16V0ZM109.354,109.354H6.806V6.806H109.354Z" fill="url(#linear-gradient-2)"/>
        </g>
      </g>
    </g>
  </g>
</svg>
